<mxfile host="app.diagrams.net" modified="2021-07-02T23:38:02.037Z" agent="5.0 (Windows NT 10.0; Win64; x64) AppleWebKit/537.36 (KHTML, like Gecko) Chrome/91.0.4472.114 Safari/537.36" etag="zzH9_EiqErUzMmX_MwWd" version="14.8.2" type="github">
  <diagram id="2J2yqrsg6DM9eIS4pPFx" name="Page-1">
    <mxGraphModel dx="983" dy="510" grid="1" gridSize="10" guides="1" tooltips="1" connect="1" arrows="1" fold="1" page="1" pageScale="1" pageWidth="850" pageHeight="1100" math="0" shadow="0">
      <root>
        <mxCell id="0" />
        <mxCell id="1" parent="0" />
        <mxCell id="KjbbqTZyI_L_VySsDFwy-1" value="App" style="whiteSpace=wrap;html=1;aspect=fixed;" vertex="1" parent="1">
          <mxGeometry x="450" y="130" width="80" height="80" as="geometry" />
        </mxCell>
        <mxCell id="KjbbqTZyI_L_VySsDFwy-3" value="Songs" style="whiteSpace=wrap;html=1;aspect=fixed;" vertex="1" parent="1">
          <mxGeometry x="370" y="380" width="80" height="80" as="geometry" />
        </mxCell>
        <mxCell id="KjbbqTZyI_L_VySsDFwy-4" value="Navbar" style="whiteSpace=wrap;html=1;aspect=fixed;" vertex="1" parent="1">
          <mxGeometry x="450" y="270" width="80" height="80" as="geometry" />
        </mxCell>
        <mxCell id="KjbbqTZyI_L_VySsDFwy-5" value="Footer" style="whiteSpace=wrap;html=1;aspect=fixed;" vertex="1" parent="1">
          <mxGeometry x="560" y="200" width="80" height="80" as="geometry" />
        </mxCell>
        <mxCell id="KjbbqTZyI_L_VySsDFwy-6" value="Home" style="whiteSpace=wrap;html=1;aspect=fixed;" vertex="1" parent="1">
          <mxGeometry x="330" y="210" width="80" height="80" as="geometry" />
        </mxCell>
        <mxCell id="KjbbqTZyI_L_VySsDFwy-7" value="Form" style="whiteSpace=wrap;html=1;aspect=fixed;" vertex="1" parent="1">
          <mxGeometry x="530" y="380" width="80" height="80" as="geometry" />
        </mxCell>
        <mxCell id="KjbbqTZyI_L_VySsDFwy-8" value="" style="endArrow=classic;html=1;" edge="1" parent="1">
          <mxGeometry width="50" height="50" relative="1" as="geometry">
            <mxPoint x="489.5" y="210" as="sourcePoint" />
            <mxPoint x="489.5" y="270" as="targetPoint" />
            <Array as="points">
              <mxPoint x="489.5" y="240" />
            </Array>
          </mxGeometry>
        </mxCell>
        <mxCell id="KjbbqTZyI_L_VySsDFwy-10" value="" style="endArrow=none;dashed=1;html=1;" edge="1" parent="1">
          <mxGeometry width="50" height="50" relative="1" as="geometry">
            <mxPoint x="420" y="380" as="sourcePoint" />
            <mxPoint x="450" y="350" as="targetPoint" />
          </mxGeometry>
        </mxCell>
        <mxCell id="KjbbqTZyI_L_VySsDFwy-12" value="" style="endArrow=none;dashed=1;html=1;entryX=0;entryY=1;entryDx=0;entryDy=0;" edge="1" parent="1" target="KjbbqTZyI_L_VySsDFwy-1">
          <mxGeometry width="50" height="50" relative="1" as="geometry">
            <mxPoint x="410" y="240" as="sourcePoint" />
            <mxPoint x="460" y="190" as="targetPoint" />
          </mxGeometry>
        </mxCell>
        <mxCell id="KjbbqTZyI_L_VySsDFwy-13" value="" style="endArrow=none;dashed=1;html=1;exitX=0.25;exitY=0;exitDx=0;exitDy=0;" edge="1" parent="1" source="KjbbqTZyI_L_VySsDFwy-7">
          <mxGeometry width="50" height="50" relative="1" as="geometry">
            <mxPoint x="580" y="400" as="sourcePoint" />
            <mxPoint x="530" y="350" as="targetPoint" />
          </mxGeometry>
        </mxCell>
        <mxCell id="KjbbqTZyI_L_VySsDFwy-14" value="" style="endArrow=none;dashed=1;html=1;" edge="1" parent="1" source="KjbbqTZyI_L_VySsDFwy-1">
          <mxGeometry width="50" height="50" relative="1" as="geometry">
            <mxPoint x="530" y="220" as="sourcePoint" />
            <mxPoint x="560" y="200" as="targetPoint" />
          </mxGeometry>
        </mxCell>
      </root>
    </mxGraphModel>
  </diagram>
</mxfile>
